<?xml version="1.0" encoding="iso-8859-1"?>
<!-- Uploaded to: SVG Repo, www.svgrepo.com, Generator: SVG Repo Mixer Tools -->
<svg version="1.1" id="Layer_1" xmlns="http://www.w3.org/2000/svg" xmlns:xlink="http://www.w3.org/1999/xlink" 
	 viewBox="0 0 512.001 512.001" xml:space="preserve">
<path style="fill:#A8A59A;" d="M102.992,447.247v48.318l0,0c17.79,0,32.212-14.422,32.212-32.212l0,0v-16.106H102.992z"/>
<path style="fill:#E0DCCD;" d="M353.175,471.145v8.316c0,8.895-7.342,16.106-16.237,16.106S320.7,488.355,320.7,479.46v-8.316"/>
<path style="fill:#FCBB3B;" d="M336.531,306.5c0-51.247-41.545-92.792-92.792-92.792h-56.01c-51.247,0-92.792,41.545-92.792,80.67
	v152.869h48.318l0.403,56.372h144.468l0.085-32.213h40.266H256v-96.638h80.531L336.531,306.5L336.531,306.5z"/>
<g>
	<path style="fill:#BD8C2C;" d="M219.943,213.442H187.73c-51.247,0-93.306,41.811-93.306,80.937v152.672h32.475V294.378
		C126.899,255.253,168.695,213.442,219.943,213.442z"/>
	<rect x="143.518" y="318.399" style="fill:#BD8C2C;" width="27.321" height="185.221"/>
	<rect x="262.784" y="318.399" style="fill:#BD8C2C;" width="27.321" height="185.221"/>
</g>
<path style="fill:#FCBB3B;" d="M168.548,76.805V55.258c0-26.18,21.223-47.402,47.402-47.402l0,0
	c26.18,0,47.402,21.223,47.402,47.402v21.546"/>
<rect x="255.996" y="374.769" style="fill:#4BAF78;" width="161.064" height="96.639"/>
<rect x="312.376" y="374.769" style="fill:#FFFFFF;" width="48.314" height="32.213"/>
<rect x="255.996" y="374.769" style="fill:#1E834E;" width="40.266" height="96.639"/>
<path style="fill:#BD8C2C;" d="M235.457,12.561c-6.207-2.985-13.568-4.705-20.916-4.705c-26.18,0-47.834,21.223-47.834,47.403v20.95
	h40.855V55.258C207.562,36.427,219.549,20.209,235.457,12.561z"/>
<path style="fill:#4BAF78;" d="M194.403,76.805V63.878c0-11.899,9.647-21.546,21.546-21.546l0,0
	c11.899,0,21.546,9.647,21.546,21.546v12.928"/>
<path style="fill:#E0DCCD;" d="M264.131,76.21v65.884c0,26.209-22.188,47.254-48.397,47.254h-0.432
	c-26.209,0-48.596-21.046-48.596-47.254V76.21"/>
<path style="fill:#A8A59A;" d="M207.562,142.093V76.21h-40.855v65.883c0,26.209,22.388,47.255,48.596,47.255h0.432
	c7.077,0,13.771-1.491,19.897-4.269C219.198,177.57,207.562,161.225,207.562,142.093z"/>
<path d="M151.114,455.104H87.082V306.5c0-55.498,45.15-100.649,100.649-100.649h56.01c55.498,0,100.649,45.15,100.649,100.649
	v52.164h-15.714V306.5c0-46.834-38.101-84.935-84.935-84.935h-56.01c-46.834,0-84.935,38.101-84.935,84.935v132.891H135.4V310.541
	h23.963v15.714h-8.25V455.104z"/>
<path d="M279.845,68.877h-8.637V55.259C271.208,24.79,246.418,0,215.948,0s-55.259,24.79-55.259,55.259v13.617h-9.696V84.59h8.381
	v57.503c0,14.77,5.872,28.724,16.533,39.297c10.626,10.536,24.617,16.339,39.396,16.339h0.432c30.729,0,55.73-24.957,55.73-55.634
	V84.59h8.381V68.877H279.845z M176.403,55.259c0-21.805,17.741-39.546,39.546-39.546s39.546,17.741,39.546,39.546v13.617h-10.143
	v-4.999c0-16.213-13.19-29.403-29.403-29.403s-29.403,13.19-29.403,29.403v4.999h-10.143V55.259z M229.639,68.877H202.26v-4.999
	c0-7.549,6.141-13.69,13.69-13.69s13.69,6.141,13.69,13.69L229.639,68.877L229.639,68.877z M255.751,142.093
	c0,22.013-17.951,39.921-40.016,39.921h-0.432c-21.799,0-40.215-18.282-40.215-39.921V84.59h80.663L255.751,142.093L255.751,142.093
	z"/>
<rect x="272.516" y="439.719" width="48.188" height="15.714"/>
<rect x="329.085" y="439.719" style="fill:#FFFFFF;" width="15.714" height="15.714"/>
<rect x="353.179" y="439.719" width="15.714" height="15.714"/>
<g>
	<rect x="207.567" y="238.585" style="fill:#75C0C7;" width="15.714" height="15.714"/>
	<rect x="207.567" y="271.059" style="fill:#75C0C7;" width="15.714" height="15.714"/>
	<rect x="207.567" y="303.534" style="fill:#75C0C7;" width="15.714" height="15.714"/>
	<rect x="207.567" y="333.914" style="fill:#75C0C7;" width="15.714" height="15.714"/>
	<rect x="207.567" y="366.388" style="fill:#75C0C7;" width="15.714" height="15.714"/>
	<rect x="207.567" y="398.863" style="fill:#75C0C7;" width="15.714" height="15.714"/>
	<rect x="207.567" y="431.338" style="fill:#75C0C7;" width="15.714" height="15.714"/>
	<rect x="207.567" y="463.813" style="fill:#75C0C7;" width="15.714" height="15.714"/>
</g>
<path d="M424.919,366.912H248.143v112.351h64.176v0.197c0,13.213,10.809,23.963,24.094,23.963c13.285,0,24.094-10.749,24.094-23.963
	v-0.197h64.411L424.919,366.912L424.919,366.912z M320.7,382.626h32.475v16.235H320.7V382.626z M344.794,479.46
	c0,4.549-3.76,8.25-8.381,8.25c-4.621,0-8.381-3.701-8.381-8.25v-0.197h16.761V479.46z M409.205,463.55H263.857v-80.924h41.13
	v31.949h63.902v-31.949h40.317L409.205,463.55L409.205,463.55z"/>
<polygon points="296.606,358.007 280.892,358.007 280.892,326.58 272.512,326.58 272.512,310.866 296.606,310.866 "/>
<path d="M102.992,503.422h-7.857v-40.07h15.714v23.055c9.586-3.275,16.499-12.374,16.499-23.055h15.714
	C143.06,485.447,125.086,503.422,102.992,503.422z"/>
<rect x="143.665" y="496.287" width="48.188" height="15.714"/>
<rect x="199.186" y="496.287" width="36.665" height="15.714"/>
<rect x="242.136" y="496.287" width="48.188" height="15.714"/>
<rect x="150.998" y="271.059" width="40.855" height="15.714"/>
</svg>